<?xml version="1.0" encoding="UTF-8"?>
<svg width="46px" height="46px" viewBox="0 0 46 46" version="1.1" xmlns="http://www.w3.org/2000/svg" xmlns:xlink="http://www.w3.org/1999/xlink">
    <!-- Generator: Sketch 52.4 (67378) - http://www.bohemiancoding.com/sketch -->
    <title>home_transaction_press@2x</title>
    <desc>Created with Sketch.</desc>
    <g id="Page-1" stroke="none" stroke-width="1" fill="none" fill-rule="evenodd">
        <g id="A-首页" transform="translate(-502.000000, -1740.000000)" fill="#2AB3FF" fill-rule="nonzero">
            <g id="分组-19" transform="translate(0.000000, 1730.000000)">
                <g id="home_transaction_press" transform="translate(502.000000, 10.000000)">
                    <path d="M23.5926006,17.1436403 C16.6647849,16.0110149 10.4404196,20.5929362 4.91950492,30.8894043 C2.45498669,23.6298014 2.3636781,18.1424245 4.64557914,14.4272736 C7.94929008,8.71212265 14.2649639,5.56969812 23.5926006,5 L23.5926006,-1.42108547e-14 L38.2793682,11.0002629 L23.5926006,22 C23.5860088,19.5087077 23.5860088,17.8899211 23.5926006,17.1436403 Z M21.6867676,28.745764 C28.6145833,29.8783894 34.8389486,25.2964681 40.3598633,15 C42.8243815,22.2596029 42.9156901,27.7469798 40.6337891,31.4621307 C37.3300781,37.1772816 31.0144043,40.3197062 21.6867676,40.8894043 L21.6867676,45.8894043 L7,34.8891414 L21.6867676,23.8894043 C21.6933594,26.3806966 21.6933594,27.9994832 21.6867676,28.745764 Z" id="合并形状"></path>
                </g>
            </g>
        </g>
    </g>
</svg>